<svg width="601" height="149" viewBox="0 0 601 149" fill="none" xmlns="http://www.w3.org/2000/svg">
<path d="M367.9 114.5H367.7C367.8 114.5 367.8 114.6 367.9 114.6H368L367.9 114.5ZM367.9 114.6C367.1 114.6 365 115 362.8 115C355.9 115 353.5 111.8 353.5 107.6V79.8H367.6C368.4 79.8 369 79.1 369 78.1V63C369 62.2 368.3 61.5 367.6 61.5H353.5V42.7C353.5 42 353 41.6 352.2 41.6H333C332.2 41.6 331.8 42.1 331.8 42.7V62C331.8 62 322.1 64.4 321.5 64.5C320.8 64.7 320.4 65.3 320.4 66V78.1C320.4 79.1 321.1 79.8 321.9 79.8H331.7V109C331.7 130.7 346.8 132.9 357.1 132.9C361.8 132.9 367.5 131.4 368.4 130.9C368.9 130.7 369.2 130.1 369.2 129.5V116.2C369.2 115.4 368.7 114.8 367.9 114.6ZM578.5 95.1C578.5 79 572 76.9 565.2 77.6C559.9 77.9 555.6 80.6 555.6 80.6V111.9C555.6 111.9 559.9 114.9 566.4 115.1C575.5 115.3 578.5 112 578.5 95.1ZM600.1 93.7C600.1 124.2 590.2 132.9 573 132.9C558.4 132.9 550.6 125.5 550.6 125.5C550.6 125.5 550.3 129.6 549.8 130.1C549.5 130.6 549.1 130.8 548.5 130.8H535.4C534.5 130.8 533.7 130.1 533.7 129.3L533.9 30.6C533.9 29.8 534.6 29.1 535.4 29.1H554.3C555.1 29.1 555.8 29.8 555.8 30.6V64.1C555.8 64.1 563.1 59.4 573.8 59.4L573.7 59.2C584.3 59.2 600.1 63.2 600.1 93.7ZM522.6 61.6H503.9C502.9 61.6 502.4 62.3 502.4 63.3V111.6C502.4 111.6 497.5 115 490.8 115C484.2 115 482.2 112 482.2 105.3V63.1C482.2 62.3 481.5 61.6 480.7 61.6H461.7C460.9 61.6 460.2 62.3 460.2 63.1V108.6C460.2 128.1 471.1 133 486.1 133C498.5 133 508.5 126.2 508.5 126.2C508.5 126.2 509 129.7 509.2 130.2C509.4 130.6 510 131 510.6 131H522.5C523.5 131 524 130.3 524 129.5L524.2 63.1C524.3 62.3 523.5 61.6 522.6 61.6ZM312 61.5H293.1C292.3 61.5 291.6 62.3 291.6 63.3V128.5C291.6 130.3 292.8 130.9 294.3 130.9H311.4C313.2 130.9 313.6 130.1 313.6 128.5V63C313.5 62.2 312.8 61.5 312 61.5ZM302.6 31.4C295.8 31.4 290.3 36.8 290.3 43.7C290.3 50.5 295.7 56 302.6 56C309.3 56 314.7 50.6 314.7 43.7C314.7 36.9 309.3 31.4 302.6 31.4ZM449.2 29.2H430.4C429.6 29.2 428.9 29.9 428.9 30.7V67H399.5V30.7C399.5 29.9 398.8 29.2 398 29.2H379.1C378.3 29.2 377.6 29.9 377.6 30.7V129.4C377.6 130.2 378.4 130.9 379.1 130.9H398C398.8 130.9 399.5 130.2 399.5 129.4V87.2H428.9L428.7 129.4C428.7 130.2 429.4 130.9 430.2 130.9H449.1C449.9 130.9 450.6 130.2 450.6 129.4V30.7C450.7 29.9 450 29.2 449.2 29.2ZM281.5 72.9V123.9C281.5 124.2 281.4 124.9 281 125C281 125 269.9 132.9 251.6 132.9C229.5 132.9 203.2 126 203.2 80.3C203.2 34.6 226.1 25.2 248.5 25.3C267.9 25.3 275.7 29.7 276.9 30.5C277.2 31 277.4 31.3 277.4 31.7L273.8 47.6C273.8 48.4 273 49.4 272 49.1C268.8 48.1 264 46.2 252.7 46.2C239.6 46.2 225.6 49.9 225.6 79.4C225.6 108.8 238.9 112.3 248.5 112.3C256.7 112.3 259.6 111.3 259.6 111.3V90.9H246.5C245.5 90.9 244.8 90.2 244.8 89.4V73C244.8 72.2 245.5 71.5 246.5 71.5H279.8C280.8 71.4 281.5 72.1 281.5 72.9Z" fill="#24292E"/>
<path fill-rule="evenodd" clip-rule="evenodd" d="M76.2 0C34.1 0 0 34.1 0 76.2C0 109.9 21.8 138.4 52.1 148.5C55.9 149.1 57.4 146.9 57.4 144.9C57.4 143.1 57.3 137.1 57.3 130.7C38.2 134.2 33.2 126 31.7 121.8C30.8 119.6 27.1 112.8 23.9 111C21.2 109.6 17.4 106 23.8 105.9C29.8 105.8 34.1 111.4 35.5 113.7C42.4 125.2 53.3 122 57.7 120C58.4 115.1 60.4 111.7 62.6 109.8C45.7 107.9 27.9 101.3 27.9 72.2C27.9 63.9 30.9 57 35.7 51.7C34.9 49.8 32.3 42 36.5 31.5C36.5 31.5 42.9 29.5 57.5 39.3C63.6 37.6 70.1 36.7 76.5 36.7C83 36.7 89.4 37.6 95.5 39.3C110.1 29.4 116.4 31.5 116.4 31.5C120.6 42 117.9 49.8 117.2 51.7C122.1 57 125 63.8 125 72.2C125 101.4 107.2 107.9 90.2 109.8C93 112.2 95.4 116.7 95.4 123.9C95.4 134.1 95.3 142.3 95.3 144.8C95.3 146.8 96.7 149.2 100.5 148.4C131.5 137.9 152.4 108.8 152.4 76.1C152.4 34.1 118.3 0 76.2 0Z" fill="#24292E"/>
</svg>
