<svg width="400" height="400" viewBox="0 0 400 400" fill="none" xmlns="http://www.w3.org/2000/svg">
<rect width="400" height="400" fill="#191919"/>
<path d="M219.857 324.291V380.795H193.969V324.291H219.857ZM205.893 308.285L232.855 219.77H259.818L218.676 336H201.273L205.893 308.285ZM181.078 219.77L209.008 308.715L212.875 336H195.473L154.223 219.77H181.078ZM321.049 255.219L293.012 336H264.76L309.018 217.191L326.85 218.051L321.049 255.219ZM292.152 171.43C296.091 171.43 299.564 171.859 302.572 172.719C305.652 173.578 308.301 174.831 310.521 176.479C312.813 178.054 314.747 180.023 316.322 182.387C317.898 184.678 319.223 187.257 320.297 190.121L365.414 305.922C366.345 308.142 367.312 310.076 368.314 311.723C369.389 313.298 370.57 314.516 371.859 315.375C373.22 316.234 374.796 316.664 376.586 316.664C377.23 316.664 377.875 316.664 378.52 316.664C379.236 316.592 379.88 316.557 380.453 316.557L380.775 336.859C379.558 337.146 378.09 337.396 376.371 337.611C374.652 337.826 372.755 337.934 370.678 337.934C365.45 337.934 360.974 337.217 357.25 335.785C353.598 334.281 350.482 331.846 347.904 328.48C345.398 325.115 343.106 320.603 341.029 314.945L310.092 231.801L297.738 202.475C296.736 199.896 295.59 197.855 294.301 196.352C293.083 194.848 291.615 193.773 289.896 193.129C288.249 192.413 286.316 192.055 284.096 192.055C283.308 192.055 282.377 192.09 281.303 192.162C280.3 192.162 279.298 192.198 278.295 192.27L277.865 173.148C279.656 172.647 281.947 172.253 284.74 171.967C287.605 171.609 290.076 171.43 292.152 171.43Z" fill="#FAFAFA"/>
</svg>
