<svg width="323" height="323" viewBox="0 0 323 323" fill="none" xmlns="http://www.w3.org/2000/svg">
<path d="M65.064 270.378C62.292 270.378 59.808 269.928 57.612 269.028C55.416 268.128 53.652 266.796 52.32 265.032C51.024 263.268 50.34 261.144 50.268 258.66H60.096C60.24 260.064 60.726 261.144 61.554 261.9C62.382 262.62 63.462 262.98 64.794 262.98C66.162 262.98 67.242 262.674 68.034 262.062C68.826 261.414 69.222 260.532 69.222 259.416C69.222 258.48 68.898 257.706 68.25 257.094C67.638 256.482 66.864 255.978 65.928 255.582C65.028 255.186 63.732 254.736 62.04 254.232C59.592 253.476 57.594 252.72 56.046 251.964C54.498 251.208 53.166 250.092 52.05 248.616C50.934 247.14 50.376 245.214 50.376 242.838C50.376 239.31 51.654 236.556 54.21 234.576C56.766 232.56 60.096 231.552 64.2 231.552C68.376 231.552 71.742 232.56 74.298 234.576C76.854 236.556 78.222 239.328 78.402 242.892H68.412C68.34 241.668 67.89 240.714 67.062 240.03C66.234 239.31 65.172 238.95 63.876 238.95C62.76 238.95 61.86 239.256 61.176 239.868C60.492 240.444 60.15 241.29 60.15 242.406C60.15 243.63 60.726 244.584 61.878 245.268C63.03 245.952 64.83 246.69 67.278 247.482C69.726 248.31 71.706 249.102 73.218 249.858C74.766 250.614 76.098 251.712 77.214 253.152C78.33 254.592 78.888 256.446 78.888 258.714C78.888 260.874 78.33 262.836 77.214 264.6C76.134 266.364 74.55 267.768 72.462 268.812C70.374 269.856 67.908 270.378 65.064 270.378ZM122.641 232.092V239.49H112.597V270H103.363V239.49H93.3187V232.092H122.641ZM161.673 263.304H147.525L145.257 270H135.591L149.307 232.092H159.999L173.715 270H163.941L161.673 263.304ZM159.297 256.176L154.599 242.298L149.955 256.176H159.297ZM187.123 250.992C187.123 247.248 187.933 243.918 189.553 241.002C191.173 238.05 193.423 235.764 196.303 234.144C199.219 232.488 202.513 231.66 206.185 231.66C210.685 231.66 214.537 232.848 217.741 235.224C220.945 237.6 223.087 240.84 224.167 244.944H214.015C213.259 243.36 212.179 242.154 210.775 241.326C209.407 240.498 207.841 240.084 206.077 240.084C203.233 240.084 200.929 241.074 199.165 243.054C197.401 245.034 196.519 247.68 196.519 250.992C196.519 254.304 197.401 256.95 199.165 258.93C200.929 260.91 203.233 261.9 206.077 261.9C207.841 261.9 209.407 261.486 210.775 260.658C212.179 259.83 213.259 258.624 214.015 257.04H224.167C223.087 261.144 220.945 264.384 217.741 266.76C214.537 269.1 210.685 270.27 206.185 270.27C202.513 270.27 199.219 269.46 196.303 267.84C193.423 266.184 191.173 263.898 189.553 260.982C187.933 258.066 187.123 254.736 187.123 250.992ZM262.6 270L249.856 253.26V270H240.622V232.092H249.856V248.724L262.492 232.092H273.346L258.658 250.668L273.886 270H262.6Z" fill="black"/>
<path d="M156.448 33.5796C134.208 40.7583 125.453 43.7706 124.918 44.4744C124.383 45.15 124.355 45.6567 124.355 62.0129V78.8477L108.646 84.0558C99.9756 86.8991 92.4591 89.4328 91.9242 89.658C91.1922 89.9677 90.8263 90.3618 90.601 91.0374C90.3758 91.7131 90.3195 96.9493 90.404 108.829C90.5166 128.31 90.1506 126.34 93.8385 127.438C98.5398 128.817 115.628 134.166 118.697 135.208C121.174 136.052 121.99 136.221 122.159 135.94C122.272 135.771 122.384 127.381 122.384 117.331C122.356 102.749 122.441 99.0044 122.722 98.8355C122.919 98.7229 125.425 97.8502 128.296 96.893C131.168 95.9077 133.617 95.0068 133.758 94.8942C133.87 94.7816 132.153 94.0778 129.901 93.374L125.819 92.0227L120.104 93.9652L114.361 95.9077L114.277 104.466C114.22 111.082 114.136 112.968 113.854 112.855C113.686 112.799 111.405 111.982 108.787 111.082L104.086 109.421L104.142 101.707L104.227 93.9934L109.857 92.079C112.954 91.0374 117.739 89.4046 120.498 88.4756C123.989 87.2932 125.763 86.8147 126.269 86.9273C128.043 87.3214 156.73 96.4426 159.094 97.3434C159.517 97.5123 159.545 95.9077 159.545 78.2002C159.545 60.1268 159.517 58.8881 159.066 58.6347C158.447 58.325 148.594 54.9468 148.256 54.9468C148.115 54.9468 148.003 58.3813 148.003 62.8575C148.003 69.079 147.918 70.74 147.665 70.6555C147.468 70.5711 145.244 69.7828 142.71 68.8538L138.149 67.1929L138.206 57.3679L138.29 47.571L150.114 43.489L161.938 39.4352L165.738 40.6739C167.821 41.3777 173.311 43.2638 177.928 44.8403L186.289 47.7681L186.233 57.4523L186.148 67.1366L181.503 68.9101C178.941 69.8954 176.689 70.6837 176.52 70.7118C176.239 70.7118 176.154 68.9383 176.154 62.6886V54.6935L170.749 56.5515C167.765 57.5649 165.147 58.5221 164.978 58.6629C164.697 58.8881 164.612 63.139 164.612 78.2284C164.612 96.4707 164.64 97.5123 165.119 97.3716C165.372 97.2871 169.088 96.0766 173.339 94.669C197.662 86.7021 197.55 86.7302 198.648 87.0399C199.211 87.1806 204.25 88.8416 209.796 90.6996C215.37 92.5576 219.959 94.0778 219.987 94.0778C220.043 94.0778 220.071 97.5405 220.071 101.791V109.477L215.511 111.082C212.977 111.982 210.697 112.771 210.443 112.855C209.965 112.996 209.937 112.461 209.937 104.55V96.1048L208.191 95.4854C205.01 94.4156 199.689 92.7265 198.535 92.4169C197.522 92.1635 197.015 92.248 193.327 93.4866L189.245 94.8379L194.312 96.4707C197.099 97.3434 199.971 98.2724 200.731 98.4977L202.054 98.9199V117.416C202.054 127.607 202.138 135.996 202.223 136.08C202.307 136.165 204.053 135.686 206.08 134.982C209.711 133.744 222.717 129.634 228.489 127.86C230.487 127.241 231.613 126.734 232.064 126.255L232.74 125.523V108.154V90.7841L232.12 90.1084C231.698 89.658 230.347 89.0668 228.094 88.363C218.664 85.3508 200.703 79.3544 200.168 78.9885L199.52 78.5943V62.0974C199.52 43.5735 199.605 44.3617 197.493 43.5735C192.398 41.7155 163.993 32.4254 162.078 32.0031C161.853 31.9468 159.32 32.6787 156.448 33.5796ZM191.356 77.7216V80.2271L182.714 83.0986C177.928 84.7033 173.452 86.2235 172.72 86.505L171.369 87.0399V84.4218V81.8318L181.025 78.5662C186.317 76.7645 190.821 75.2724 191.019 75.2724C191.272 75.2161 191.356 75.8918 191.356 77.7216ZM141.64 78.3128C146.285 79.833 150.705 81.3251 151.465 81.5784L152.788 82.0289V84.5344C152.788 85.9138 152.76 87.0399 152.704 87.0399C152.591 87.0399 146.539 84.9848 138.741 82.2822C135.559 81.1843 132.941 80.2834 132.885 80.2834C132.829 80.2834 132.801 79.2137 132.801 77.8905C132.801 76.5674 132.885 75.4976 132.97 75.4976C133.082 75.4976 136.967 76.7645 141.64 78.3128ZM108.027 119.527L115.769 122.117L115.853 124.735C115.938 127.325 115.938 127.353 115.29 127.156C114.924 127.044 110.927 125.749 106.422 124.257L98.1739 121.554V119.133C98.1739 117.782 98.2583 116.627 98.3428 116.543C98.5117 116.346 98.568 116.346 108.027 119.527ZM225.42 118.964V121.61L216.89 124.454C212.217 126.03 208.276 127.297 208.163 127.297C207.853 127.297 207.938 122.286 208.247 122.089C208.585 121.892 224.885 116.346 225.223 116.346C225.336 116.318 225.42 117.5 225.42 118.964Z" fill="black"/>
<path d="M154.759 47.0643C151.296 48.2467 148.425 49.3446 148.368 49.4854C148.34 49.6261 151.381 50.724 155.153 51.9064L161.994 54.0741L164.359 53.3703C168.553 52.1035 176.182 49.5417 176.07 49.429C175.732 49.0912 162.501 44.8122 161.853 44.8403C161.431 44.8403 158.25 45.8538 154.759 47.0643Z" fill="black"/>
<path d="M137.868 99.3141C135.306 100.187 133.11 100.975 132.997 101.088C132.885 101.2 133.701 101.594 134.827 101.96C135.953 102.298 138.008 102.946 139.388 103.396L141.893 104.184L147.045 102.58C149.889 101.707 152.225 100.891 152.225 100.778C152.225 100.525 143.583 97.7376 142.963 97.7657C142.71 97.7657 140.43 98.4695 137.868 99.3141Z" fill="black"/>
<path d="M176.492 99.2015C173.818 100.102 172.326 100.75 172.551 100.891C172.748 101.003 175.085 101.82 177.731 102.692L182.545 104.269L187.302 102.749L192.032 101.228L186.824 99.483C183.952 98.5258 181.419 97.7376 181.193 97.7657C180.968 97.7657 178.857 98.4132 176.492 99.2015Z" fill="black"/>
<path d="M156.392 105.395C153.633 106.324 151.381 107.168 151.381 107.253C151.381 107.365 153.745 108.238 156.617 109.195L161.853 110.941L164.865 110.012C171.397 107.985 173.058 107.45 173.058 107.253C173.058 106.999 162.641 103.649 161.938 103.678C161.628 103.678 159.122 104.466 156.392 105.395Z" fill="black"/>
<path d="M127.17 121.667V137.966L132.744 139.796C135.785 140.782 142.963 143.203 148.706 145.145C154.421 147.088 159.207 148.692 159.32 148.692C159.432 148.692 159.545 141.288 159.545 132.224C159.545 119.274 159.46 115.727 159.207 115.614C159.01 115.558 151.887 113.221 143.414 110.434C134.912 107.619 127.79 105.339 127.564 105.339C127.226 105.339 127.17 107.703 127.17 121.667ZM142.935 130.45C147.186 131.858 151.156 133.181 151.747 133.406L152.788 133.828V136.474C152.788 137.938 152.704 139.121 152.591 139.121C152.45 139.121 148.312 137.741 143.357 136.052L134.349 132.984L134.264 130.253C134.18 127.719 134.236 127.522 134.687 127.719C134.968 127.832 138.684 129.042 142.935 130.45Z" fill="black"/>
<path d="M192.623 106.577C188.203 108.041 167.455 114.826 165.879 115.304L164.753 115.67L164.668 132.308L164.612 148.946L173.255 145.99C178.04 144.357 185.135 141.964 189.048 140.669C192.989 139.374 196.367 138.164 196.593 137.966C197.156 137.516 197.184 105.339 196.649 105.339C196.452 105.367 194.65 105.902 192.623 106.577ZM190.089 130.394V133.04L180.856 136.08C175.76 137.769 171.509 139.064 171.368 138.98C171.143 138.839 171.228 134.082 171.453 133.856C171.706 133.631 189.555 127.607 189.808 127.691C189.977 127.719 190.089 128.873 190.089 130.394Z" fill="black"/>
<path d="M96.9069 133.913C96.7662 133.969 94.1762 134.813 91.1921 135.742C86.2656 137.319 85.7307 137.544 85.3647 138.304C84.9987 139.008 84.9424 141.457 84.9987 156.293C85.0832 173.015 85.0832 173.466 85.6462 174.001C85.984 174.339 92.4871 176.647 102.115 179.884C110.87 182.84 118.359 185.374 118.781 185.543C119.4 185.768 119.654 185.74 119.991 185.402C120.357 185.008 120.414 183.009 120.357 168.314L120.273 151.676L114.783 149.903C111.771 148.946 109.125 148.129 108.956 148.129C108.674 148.129 108.59 149.649 108.59 154.829V161.558L103.466 159.7L98.3145 157.813L98.2301 149.847C98.1738 144.019 98.2582 141.767 98.5116 141.457C98.962 140.922 100.623 140.247 101.524 140.247C102.847 140.275 123.848 147.454 124.552 148.129L125.2 148.749V165.443C125.2 181.602 125.228 182.137 125.763 182.812C126.044 183.206 126.663 183.657 127.086 183.826C129.394 184.698 158.756 194.298 159.122 194.298C159.488 194.298 159.545 192.074 159.545 174.648C159.545 156.265 159.517 154.942 159.066 154.548C158.616 154.182 153.605 152.352 152.985 152.352C152.873 152.352 152.788 156.659 152.788 161.924C152.788 169.384 152.704 171.495 152.45 171.495C152.253 171.495 151.099 171.157 149.917 170.735L147.721 170.003V168.427C147.721 165.837 147.608 165.696 145.356 164.936L143.357 164.26L143.189 156.547C143.076 152.296 142.991 148.805 142.963 148.777C142.879 148.664 97.4981 133.772 97.3011 133.8C97.2448 133.8 97.0759 133.856 96.9069 133.913ZM134.771 151.761L138.572 153.084L138.656 155.815C138.684 157.307 138.628 158.545 138.515 158.545C138.375 158.545 136.432 157.926 134.208 157.194L130.126 155.815L130.042 153.112C129.985 150.635 130.013 150.381 130.464 150.41C130.745 150.41 132.688 151.001 134.771 151.761ZM102.284 166.738C106.901 168.286 111.433 169.806 112.334 170.144L113.939 170.707V173.241C113.939 175.155 113.854 175.746 113.601 175.662C113.404 175.577 108.843 174.029 103.466 172.199L93.6695 168.849V166.372C93.6695 165.02 93.7258 163.894 93.7821 163.894C93.8384 163.894 97.667 165.161 102.284 166.738ZM140.655 175.352C144.005 176.534 148.115 177.942 149.776 178.477L152.816 179.519L152.732 182.052C152.676 183.544 152.535 184.558 152.366 184.53C152.225 184.501 150.114 183.769 147.721 182.925C145.328 182.08 141.021 180.56 138.149 179.575L132.941 177.801L132.857 175.324L132.772 172.847L133.673 173.044C134.152 173.156 137.305 174.198 140.655 175.352Z" fill="black"/>
<path d="M220.634 135.63C211.091 138.67 181.954 148.467 181.588 148.749C181.334 148.974 181.222 151.001 181.165 156.519L181.081 164.007L178.913 164.711L176.745 165.414L176.577 167.244C176.492 168.258 176.38 169.328 176.351 169.637C176.323 170.031 175.704 170.369 174.043 170.96C172.804 171.383 171.763 171.692 171.706 171.636C171.65 171.58 171.566 167.301 171.537 162.093C171.481 156.884 171.368 152.549 171.284 152.465C171.087 152.268 165.513 154.21 164.978 154.661C164.697 154.886 164.612 158.94 164.612 174.62C164.612 185.43 164.697 194.326 164.837 194.383C165.231 194.608 197.972 183.601 198.535 183.009C199.07 182.474 199.098 181.996 199.239 165.64C199.351 153.225 199.464 148.664 199.717 148.242C200.14 147.538 199.182 147.904 212.076 143.484L222.548 139.937L224.181 140.613L225.842 141.317L225.927 149.649C225.955 154.238 225.955 157.982 225.899 157.982C225.786 157.982 216.862 161.164 216.074 161.501C215.595 161.698 215.567 161.248 215.567 154.773C215.567 150.973 215.482 147.848 215.37 147.848C215.229 147.848 212.667 148.72 209.655 149.762L204.165 151.648L204.081 167.976C204.053 176.957 204.081 184.614 204.165 184.98C204.306 185.515 204.475 185.599 205.094 185.487C205.517 185.402 213.089 182.925 221.901 179.969C234.034 175.887 238.116 174.395 238.651 173.86L239.355 173.156L239.271 155.927C239.186 141.598 239.102 138.586 238.764 138.079C238.482 137.601 236.99 137.009 232.739 135.602C229.643 134.588 226.94 133.772 226.743 133.8C226.574 133.8 223.815 134.645 220.634 135.63ZM194.453 153.028V155.646L190.258 157.11C187.95 157.898 185.923 158.545 185.754 158.545C185.529 158.545 185.444 157.701 185.501 155.843L185.585 153.112L189.526 151.789C191.694 151.029 193.693 150.438 193.974 150.41C194.397 150.381 194.453 150.691 194.453 153.028ZM231.05 166.259V168.905L220.831 172.312C215.201 174.17 210.528 175.718 210.415 175.718C210.302 175.718 210.246 174.564 210.274 173.128L210.359 170.566L220.634 167.104C226.293 165.189 230.938 163.641 230.994 163.613C231.022 163.613 231.05 164.795 231.05 166.259ZM191.638 175.127V177.632L189.611 178.336C188.485 178.702 183.981 180.25 179.617 181.743C175.253 183.235 171.594 184.445 171.509 184.445C171.425 184.445 171.368 183.319 171.368 181.94C171.368 179.828 171.453 179.406 171.875 179.237C172.945 178.787 191.187 172.621 191.413 172.621C191.525 172.621 191.638 173.747 191.638 175.127Z" fill="black"/>
</svg>
